<mxfile host="Electron" modified="2023-12-27T12:03:32.018Z" agent="Mozilla/5.0 (Windows NT 10.0; Win64; x64) AppleWebKit/537.36 (KHTML, like Gecko) draw.io/21.2.8 Chrome/112.0.5615.165 Electron/24.2.0 Safari/537.36" etag="dyoh_TpJKiAoCMGqSRtC" version="21.2.8" type="device">
  <diagram name="Page-1" id="G8zUkWH1zO-NME-5j4UN">
    <mxGraphModel dx="1100" dy="803" grid="1" gridSize="10" guides="1" tooltips="1" connect="1" arrows="1" fold="1" page="1" pageScale="1" pageWidth="827" pageHeight="1169" math="0" shadow="0">
      <root>
        <mxCell id="0" />
        <mxCell id="1" parent="0" />
        <mxCell id="S-mwotM_cn-dGgrq2116-1" value="&lt;b&gt;&lt;font face=&quot;Verdana&quot; style=&quot;font-size: 16px;&quot;&gt;7&lt;/font&gt;&lt;/b&gt;" style="rounded=0;whiteSpace=wrap;html=1;fillColor=#f8cecc;strokeColor=#030303;" parent="1" vertex="1">
          <mxGeometry x="150" y="593" width="50" height="55" as="geometry" />
        </mxCell>
        <mxCell id="pxex9ywGjvc4ZNXBWNHF-4" style="edgeStyle=orthogonalEdgeStyle;rounded=0;orthogonalLoop=1;jettySize=auto;html=1;exitX=0;exitY=1;exitDx=0;exitDy=0;entryX=1;entryY=0;entryDx=0;entryDy=0;" edge="1" parent="1" source="S-mwotM_cn-dGgrq2116-2" target="pxex9ywGjvc4ZNXBWNHF-1">
          <mxGeometry relative="1" as="geometry" />
        </mxCell>
        <mxCell id="S-mwotM_cn-dGgrq2116-2" value="&lt;b&gt;&lt;font face=&quot;Verdana&quot; style=&quot;font-size: 16px;&quot;&gt;10&lt;/font&gt;&lt;/b&gt;" style="rounded=0;whiteSpace=wrap;html=1;fillColor=#f8cecc;strokeColor=#030303;" parent="1" vertex="1">
          <mxGeometry x="200" y="593" width="50" height="55" as="geometry" />
        </mxCell>
        <mxCell id="S-mwotM_cn-dGgrq2116-7" value="&lt;b&gt;&lt;font face=&quot;Verdana&quot; style=&quot;font-size: 16px;&quot;&gt;5&lt;/font&gt;&lt;/b&gt;" style="rounded=0;whiteSpace=wrap;html=1;fillColor=#d5e8d4;strokeColor=#000000;" parent="1" vertex="1">
          <mxGeometry y="730" width="50" height="55" as="geometry" />
        </mxCell>
        <mxCell id="S-mwotM_cn-dGgrq2116-8" value="&lt;b&gt;&lt;font face=&quot;Verdana&quot; style=&quot;font-size: 16px;&quot;&gt;data&lt;/font&gt;&lt;/b&gt;" style="rounded=0;whiteSpace=wrap;html=1;fillColor=#fff2cc;strokeColor=#121211;" parent="1" vertex="1">
          <mxGeometry y="785" width="50" height="55" as="geometry" />
        </mxCell>
        <mxCell id="S-mwotM_cn-dGgrq2116-15" value="&lt;b&gt;&lt;font face=&quot;Verdana&quot; style=&quot;font-size: 16px;&quot;&gt;6&lt;/font&gt;&lt;/b&gt;" style="rounded=0;whiteSpace=wrap;html=1;fillColor=#d5e8d4;strokeColor=#000000;" parent="1" vertex="1">
          <mxGeometry x="50" y="730" width="50" height="55" as="geometry" />
        </mxCell>
        <mxCell id="S-mwotM_cn-dGgrq2116-16" value="&lt;b&gt;&lt;font face=&quot;Verdana&quot; style=&quot;font-size: 16px;&quot;&gt;data&lt;/font&gt;&lt;/b&gt;" style="rounded=0;whiteSpace=wrap;html=1;fillColor=#fff2cc;strokeColor=#121211;" parent="1" vertex="1">
          <mxGeometry x="50" y="785" width="50" height="55" as="geometry" />
        </mxCell>
        <mxCell id="S-mwotM_cn-dGgrq2116-17" value="&lt;b&gt;&lt;font face=&quot;Verdana&quot; style=&quot;font-size: 16px;&quot;&gt;8&lt;/font&gt;&lt;/b&gt;" style="rounded=0;whiteSpace=wrap;html=1;fillColor=#d5e8d4;strokeColor=#000000;" parent="1" vertex="1">
          <mxGeometry x="200" y="730" width="50" height="55" as="geometry" />
        </mxCell>
        <mxCell id="S-mwotM_cn-dGgrq2116-18" value="&lt;b&gt;&lt;font face=&quot;Verdana&quot; style=&quot;font-size: 16px;&quot;&gt;data&lt;/font&gt;&lt;/b&gt;" style="rounded=0;whiteSpace=wrap;html=1;fillColor=#fff2cc;strokeColor=#121211;" parent="1" vertex="1">
          <mxGeometry x="200" y="785" width="50" height="55" as="geometry" />
        </mxCell>
        <mxCell id="S-mwotM_cn-dGgrq2116-20" value="&lt;b&gt;&lt;font face=&quot;Verdana&quot; style=&quot;font-size: 16px;&quot;&gt;data&lt;/font&gt;&lt;/b&gt;" style="rounded=0;whiteSpace=wrap;html=1;fillColor=#fff2cc;strokeColor=#121211;" parent="1" vertex="1">
          <mxGeometry x="300" y="785" width="50" height="55" as="geometry" />
        </mxCell>
        <mxCell id="S-mwotM_cn-dGgrq2116-21" value="&lt;b&gt;&lt;font face=&quot;Verdana&quot; style=&quot;font-size: 16px;&quot;&gt;10&lt;/font&gt;&lt;/b&gt;" style="rounded=0;whiteSpace=wrap;html=1;fillColor=#d5e8d4;strokeColor=#000000;" parent="1" vertex="1">
          <mxGeometry x="350" y="730" width="50" height="55" as="geometry" />
        </mxCell>
        <mxCell id="S-mwotM_cn-dGgrq2116-22" value="&lt;b&gt;&lt;font face=&quot;Verdana&quot; style=&quot;font-size: 16px;&quot;&gt;data&lt;/font&gt;&lt;/b&gt;" style="rounded=0;whiteSpace=wrap;html=1;fillColor=#fff2cc;strokeColor=#121211;" parent="1" vertex="1">
          <mxGeometry x="350" y="785" width="50" height="55" as="geometry" />
        </mxCell>
        <mxCell id="S-mwotM_cn-dGgrq2116-26" value="" style="endArrow=classic;html=1;rounded=0;exitX=0;exitY=0.5;exitDx=0;exitDy=0;entryX=1;entryY=0;entryDx=0;entryDy=0;" parent="1" source="S-mwotM_cn-dGgrq2116-1" target="S-mwotM_cn-dGgrq2116-7" edge="1">
          <mxGeometry width="50" height="50" relative="1" as="geometry">
            <mxPoint x="460" y="750" as="sourcePoint" />
            <mxPoint x="510" y="700" as="targetPoint" />
          </mxGeometry>
        </mxCell>
        <mxCell id="S-mwotM_cn-dGgrq2116-27" value="" style="endArrow=classic;html=1;rounded=0;exitX=1;exitY=0.5;exitDx=0;exitDy=0;entryX=0;entryY=0;entryDx=0;entryDy=0;" parent="1" source="S-mwotM_cn-dGgrq2116-2" target="S-mwotM_cn-dGgrq2116-21" edge="1">
          <mxGeometry width="50" height="50" relative="1" as="geometry">
            <mxPoint x="460" y="750" as="sourcePoint" />
            <mxPoint x="510" y="700" as="targetPoint" />
          </mxGeometry>
        </mxCell>
        <mxCell id="S-mwotM_cn-dGgrq2116-28" value="" style="shape=flexArrow;endArrow=classic;html=1;rounded=0;strokeWidth=1;" parent="1" edge="1">
          <mxGeometry width="50" height="50" relative="1" as="geometry">
            <mxPoint x="441" y="700" as="sourcePoint" />
            <mxPoint x="551" y="700" as="targetPoint" />
          </mxGeometry>
        </mxCell>
        <mxCell id="S-mwotM_cn-dGgrq2116-30" value="&lt;b&gt;&lt;font face=&quot;Verdana&quot; style=&quot;font-size: 16px;&quot;&gt;9&lt;/font&gt;&lt;/b&gt;" style="rounded=0;whiteSpace=wrap;html=1;fillColor=#f8cecc;strokeColor=#030303;" parent="1" vertex="1">
          <mxGeometry x="789" y="593" width="50" height="55" as="geometry" />
        </mxCell>
        <mxCell id="S-mwotM_cn-dGgrq2116-31" value="&lt;b&gt;&lt;font face=&quot;Verdana&quot; style=&quot;font-size: 16px;&quot;&gt;5&lt;/font&gt;&lt;/b&gt;" style="rounded=0;whiteSpace=wrap;html=1;fillColor=#d5e8d4;strokeColor=#000000;" parent="1" vertex="1">
          <mxGeometry x="589" y="730" width="50" height="55" as="geometry" />
        </mxCell>
        <mxCell id="S-mwotM_cn-dGgrq2116-32" value="&lt;b&gt;&lt;font face=&quot;Verdana&quot; style=&quot;font-size: 16px;&quot;&gt;data&lt;/font&gt;&lt;/b&gt;" style="rounded=0;whiteSpace=wrap;html=1;fillColor=#fff2cc;strokeColor=#121211;" parent="1" vertex="1">
          <mxGeometry x="589" y="785" width="50" height="55" as="geometry" />
        </mxCell>
        <mxCell id="S-mwotM_cn-dGgrq2116-33" value="&lt;b&gt;&lt;font face=&quot;Verdana&quot; style=&quot;font-size: 16px;&quot;&gt;8&lt;/font&gt;&lt;/b&gt;" style="rounded=0;whiteSpace=wrap;html=1;fillColor=#d5e8d4;strokeColor=#000000;" parent="1" vertex="1">
          <mxGeometry x="689" y="730" width="50" height="55" as="geometry" />
        </mxCell>
        <mxCell id="S-mwotM_cn-dGgrq2116-34" value="&lt;b&gt;&lt;font face=&quot;Verdana&quot; style=&quot;font-size: 16px;&quot;&gt;data&lt;/font&gt;&lt;/b&gt;" style="rounded=0;whiteSpace=wrap;html=1;fillColor=#fff2cc;strokeColor=#121211;" parent="1" vertex="1">
          <mxGeometry x="689" y="785" width="50" height="55" as="geometry" />
        </mxCell>
        <mxCell id="S-mwotM_cn-dGgrq2116-39" value="&lt;b&gt;&lt;font face=&quot;Verdana&quot; style=&quot;font-size: 16px;&quot;&gt;15&lt;/font&gt;&lt;/b&gt;" style="rounded=0;whiteSpace=wrap;html=1;fillColor=#d5e8d4;strokeColor=#000000;" parent="1" vertex="1">
          <mxGeometry x="889" y="730" width="50" height="55" as="geometry" />
        </mxCell>
        <mxCell id="S-mwotM_cn-dGgrq2116-40" value="&lt;b&gt;&lt;font face=&quot;Verdana&quot; style=&quot;font-size: 16px;&quot;&gt;data&lt;/font&gt;&lt;/b&gt;" style="rounded=0;whiteSpace=wrap;html=1;fillColor=#fff2cc;strokeColor=#121211;" parent="1" vertex="1">
          <mxGeometry x="889" y="785" width="50" height="55" as="geometry" />
        </mxCell>
        <mxCell id="S-mwotM_cn-dGgrq2116-41" value="" style="endArrow=classic;html=1;rounded=0;exitX=1;exitY=0;exitDx=0;exitDy=0;entryX=0;entryY=0;entryDx=0;entryDy=0;" parent="1" edge="1">
          <mxGeometry width="50" height="50" relative="1" as="geometry">
            <mxPoint x="739" y="814" as="sourcePoint" />
            <mxPoint x="839" y="814" as="targetPoint" />
          </mxGeometry>
        </mxCell>
        <mxCell id="S-mwotM_cn-dGgrq2116-42" value="" style="endArrow=classic;html=1;rounded=0;entryX=0.5;entryY=0;entryDx=0;entryDy=0;" parent="1" target="pxex9ywGjvc4ZNXBWNHF-7" edge="1">
          <mxGeometry width="50" height="50" relative="1" as="geometry">
            <mxPoint x="788" y="620" as="sourcePoint" />
            <mxPoint x="1049" y="700" as="targetPoint" />
          </mxGeometry>
        </mxCell>
        <mxCell id="S-mwotM_cn-dGgrq2116-43" value="" style="endArrow=classic;html=1;rounded=0;exitX=1;exitY=0.5;exitDx=0;exitDy=0;entryX=0;entryY=0;entryDx=0;entryDy=0;" parent="1" source="S-mwotM_cn-dGgrq2116-30" target="S-mwotM_cn-dGgrq2116-39" edge="1">
          <mxGeometry width="50" height="50" relative="1" as="geometry">
            <mxPoint x="999" y="750" as="sourcePoint" />
            <mxPoint x="1049" y="700" as="targetPoint" />
          </mxGeometry>
        </mxCell>
        <mxCell id="S-mwotM_cn-dGgrq2116-44" value="&lt;b&gt;&lt;font face=&quot;Verdana&quot; style=&quot;font-size: 16px;&quot;&gt;9&lt;/font&gt;&lt;/b&gt;" style="rounded=0;whiteSpace=wrap;html=1;fillColor=#d5e8d4;strokeColor=#000000;" parent="1" vertex="1">
          <mxGeometry x="839" y="730" width="50" height="55" as="geometry" />
        </mxCell>
        <mxCell id="S-mwotM_cn-dGgrq2116-45" value="&lt;b&gt;&lt;font face=&quot;Verdana&quot; style=&quot;font-size: 16px;&quot;&gt;data&lt;/font&gt;&lt;/b&gt;" style="rounded=0;whiteSpace=wrap;html=1;fillColor=#fff2cc;strokeColor=#121211;" parent="1" vertex="1">
          <mxGeometry x="839" y="785" width="50" height="55" as="geometry" />
        </mxCell>
        <mxCell id="pxex9ywGjvc4ZNXBWNHF-1" value="&lt;b&gt;&lt;font color=&quot;#000000&quot; face=&quot;Verdana&quot; style=&quot;font-size: 16px;&quot;&gt;7&lt;/font&gt;&lt;/b&gt;" style="rounded=0;whiteSpace=wrap;html=1;fillColor=#FF9999;strokeColor=#271111;fontColor=#ffffff;" vertex="1" parent="1">
          <mxGeometry x="150" y="730" width="50" height="55" as="geometry" />
        </mxCell>
        <mxCell id="pxex9ywGjvc4ZNXBWNHF-2" value="&lt;b&gt;&lt;font face=&quot;Verdana&quot; style=&quot;font-size: 16px;&quot;&gt;data&lt;/font&gt;&lt;/b&gt;" style="rounded=0;whiteSpace=wrap;html=1;fillColor=#fff2cc;strokeColor=#121211;" vertex="1" parent="1">
          <mxGeometry x="150" y="785" width="50" height="55" as="geometry" />
        </mxCell>
        <mxCell id="pxex9ywGjvc4ZNXBWNHF-3" value="&lt;b&gt;&lt;font face=&quot;Verdana&quot; style=&quot;font-size: 16px;&quot;&gt;9&lt;/font&gt;&lt;/b&gt;" style="rounded=0;whiteSpace=wrap;html=1;fillColor=#d5e8d4;strokeColor=#000000;" vertex="1" parent="1">
          <mxGeometry x="300" y="730" width="50" height="55" as="geometry" />
        </mxCell>
        <mxCell id="pxex9ywGjvc4ZNXBWNHF-5" value="" style="endArrow=classic;html=1;rounded=0;exitX=1;exitY=0.5;exitDx=0;exitDy=0;entryX=0;entryY=0.5;entryDx=0;entryDy=0;" edge="1" parent="1" source="S-mwotM_cn-dGgrq2116-16" target="pxex9ywGjvc4ZNXBWNHF-2">
          <mxGeometry width="50" height="50" relative="1" as="geometry">
            <mxPoint x="390" y="630" as="sourcePoint" />
            <mxPoint x="440" y="580" as="targetPoint" />
          </mxGeometry>
        </mxCell>
        <mxCell id="pxex9ywGjvc4ZNXBWNHF-6" value="" style="endArrow=classic;html=1;rounded=0;exitX=1;exitY=0.5;exitDx=0;exitDy=0;entryX=0;entryY=0.5;entryDx=0;entryDy=0;" edge="1" parent="1">
          <mxGeometry width="50" height="50" relative="1" as="geometry">
            <mxPoint x="250" y="812" as="sourcePoint" />
            <mxPoint x="300" y="812" as="targetPoint" />
          </mxGeometry>
        </mxCell>
        <mxCell id="pxex9ywGjvc4ZNXBWNHF-7" value="&lt;b&gt;&lt;font face=&quot;Verdana&quot; style=&quot;font-size: 16px;&quot;&gt;6&lt;/font&gt;&lt;/b&gt;" style="rounded=0;whiteSpace=wrap;html=1;fillColor=#d5e8d4;strokeColor=#000000;" vertex="1" parent="1">
          <mxGeometry x="639" y="730" width="50" height="55" as="geometry" />
        </mxCell>
        <mxCell id="pxex9ywGjvc4ZNXBWNHF-8" value="&lt;b&gt;&lt;font face=&quot;Verdana&quot; style=&quot;font-size: 16px;&quot;&gt;data&lt;/font&gt;&lt;/b&gt;" style="rounded=0;whiteSpace=wrap;html=1;fillColor=#fff2cc;strokeColor=#121211;" vertex="1" parent="1">
          <mxGeometry x="639" y="785" width="50" height="55" as="geometry" />
        </mxCell>
      </root>
    </mxGraphModel>
  </diagram>
</mxfile>
